<svg width="15" height="15" viewBox="0 0 15 15" fill="none" xmlns="http://www.w3.org/2000/svg">
<path d="M1.53376 10.0378C1.70957 10.2136 1.94799 10.3123 2.19658 10.3123C2.44517 10.3123 2.68358 10.2136 2.85939 10.0378L7.50001 5.3972L12.1406 10.0378C12.3175 10.2086 12.5543 10.3031 12.8001 10.301C13.0459 10.2988 13.281 10.2002 13.4548 10.0264C13.6287 9.85259 13.7273 9.61745 13.7294 9.37164C13.7315 9.12583 13.637 8.88902 13.4663 8.7122L8.16283 3.40876C7.98702 3.23301 7.74861 3.13428 7.50001 3.13428C7.25142 3.13428 7.01301 3.23301 6.8372 3.40876L1.53376 8.7122C1.35801 8.88801 1.25928 9.12642 1.25928 9.37501C1.25928 9.62361 1.35801 9.86202 1.53376 10.0378Z" fill="white"/>
</svg>
