<svg width="668" height="668" viewBox="0 0 668 668" xmlns="http://www.w3.org/2000/svg">
<path fill-rule="evenodd" clip-rule="evenodd" d="M334 611C277.641 611 238.532 610.962 208.044 608.662C178.147 606.406 161.187 602.215 148.459 596.305C114.608 580.587 87.4134 553.392 71.6951 519.541C65.7851 506.813 61.5937 489.853 59.338 459.956C57.0378 429.468 57 390.359 57 334C57 277.641 57.0378 238.532 59.338 208.044C61.5937 178.147 65.7851 161.187 71.6951 148.459C87.4134 114.608 114.608 87.4134 148.459 71.6951C161.187 65.7851 178.147 61.5937 208.044 59.338C238.532 57.0378 277.641 57 334 57C390.359 57 429.468 57.0378 459.956 59.338C489.853 61.5937 506.813 65.7851 519.541 71.6951C553.392 87.4134 580.587 114.608 596.305 148.459C602.215 161.187 606.406 178.147 608.662 208.044C610.962 238.532 611 277.641 611 334C611 390.359 610.962 429.468 608.662 459.956C606.406 489.853 602.215 506.813 596.305 519.541C580.587 553.392 553.392 580.587 519.541 596.305C506.813 602.215 489.853 606.406 459.956 608.662C429.468 610.962 390.359 611 334 611ZM0 334C0 223.012 0 167.519 19.9966 124.454C41.3853 78.3901 78.3901 41.3853 124.454 19.9966C167.519 0 223.012 0 334 0C444.988 0 500.481 0 543.546 19.9966C589.61 41.3853 626.615 78.3901 648.003 124.454C668 167.519 668 223.012 668 334C668 444.988 668 500.481 648.003 543.546C626.615 589.61 589.61 626.615 543.546 648.003C500.481 668 444.988 668 334 668C223.012 668 167.519 668 124.454 648.003C78.3901 626.615 41.3853 589.61 19.9966 543.546C0 500.481 0 444.988 0 334ZM452 125C432.67 125 417 140.67 417 160V508C417 527.33 432.67 543 452 543C471.33 543 487 527.33 487 508V160C487 140.67 471.33 125 452 125ZM299 277C299 257.67 314.67 242 334 242C353.33 242 369 257.67 369 277V508C369 527.33 353.33 543 334 543C314.67 543 299 527.33 299 508V277ZM216 361C196.67 361 181 376.67 181 396V508C181 527.33 196.67 543 216 543C235.33 543 251 527.33 251 508V396C251 376.67 235.33 361 216 361Z"/>
</svg>
