<svg width="100" height="100" viewBox="0 0 100 100" fill="none" xmlns="http://www.w3.org/2000/svg">
<path d="M33.3331 73.1665L14.0553 53.8887C13.0165 52.8499 11.6076 52.2664 10.1386 52.2664C8.66958 52.2664 7.26071 52.8499 6.22195 53.8887C5.18318 54.9275 4.59961 56.3363 4.59961 57.8054C4.59961 58.5328 4.74288 59.253 5.02124 59.9251C5.2996 60.5971 5.7076 61.2077 6.22195 61.722L29.4442 84.9443C31.6108 87.1109 35.1108 87.1109 37.2775 84.9443L96.0553 26.1665C97.094 25.1277 97.6776 23.7189 97.6776 22.2498C97.6776 20.7808 97.094 19.3719 96.0553 18.3332C95.0165 17.2944 93.6076 16.7108 92.1386 16.7108C90.6696 16.7108 89.2607 17.2944 88.2219 18.3332L33.3331 73.1665Z" fill="#00F2A6"/>
</svg>
