<svg width="100" height="100" viewBox="0 0 100 100" fill="none" xmlns="http://www.w3.org/2000/svg">
<g clip-path="url(#clip0_1137_972)">
<path fill-rule="evenodd" clip-rule="evenodd" d="M12.1927 2.09285C10.8456 0.791724 9.04128 0.0717642 7.16845 0.0880386C5.29561 0.104313 3.50409 0.85552 2.17975 2.17986C0.855406 3.50421 0.104199 5.29572 0.0879249 7.16856C0.0716504 9.04139 0.79161 10.8457 2.09274 12.1929L39.8999 50L2.09274 87.8071C1.41052 88.466 0.866365 89.2542 0.492015 90.1257C0.117665 90.9971 -0.0793794 91.9344 -0.0876209 92.8828C-0.0958625 93.8313 0.084864 94.7718 0.444013 95.6497C0.803162 96.5275 1.33354 97.325 2.0042 97.9957C2.67487 98.6663 3.47238 99.1967 4.35021 99.5559C5.22804 99.915 6.16861 100.096 7.11703 100.088C8.06546 100.079 9.00274 99.8822 9.8742 99.5079C10.7457 99.1335 11.5338 98.5894 12.1927 97.9071L49.9999 60.1L87.807 97.9071C89.1542 99.2083 90.9585 99.9282 92.8313 99.912C94.7041 99.8957 96.4957 99.1445 97.82 97.8201C99.1444 96.4958 99.8956 94.7043 99.9118 92.8314C99.9281 90.9586 99.2082 89.1543 97.907 87.8071L60.0999 50L97.907 12.1929C99.2082 10.8457 99.9281 9.04139 99.9118 7.16856C99.8956 5.29572 99.1444 3.50421 97.82 2.17986C96.4957 0.85552 94.7041 0.104313 92.8313 0.0880386C90.9585 0.0717642 89.1542 0.791724 87.807 2.09285L49.9999 39.9L12.1927 2.09285Z" fill="white"/>
</g>
<defs>
<clipPath id="clip0_1137_972">
<rect width="100" height="100" fill="white"/>
</clipPath>
</defs>
</svg>
