<svg width="100" height="100" viewBox="0 0 100 100" xmlns="http://www.w3.org/2000/svg">
<g clip-path="url(#clip0_99_2866)">
<path d="M20.9536 80.0481H30.9696C31.5205 80.0481 31.9712 79.5974 31.9712 79.0465V20.9536C31.9712 20.4027 31.5205 19.952 30.9696 19.952H20.9536C20.4027 19.952 19.952 20.4027 19.952 20.9536V79.0465C19.952 79.5974 20.4027 80.0481 20.9536 80.0481ZM44.992 44.992H55.0081C55.5589 44.992 56.0097 44.5413 56.0097 43.9904V20.9536C56.0097 20.4027 55.5589 19.952 55.0081 19.952H44.992C44.4412 19.952 43.9904 20.4027 43.9904 20.9536V43.9904C43.9904 44.5413 44.4412 44.992 44.992 44.992ZM69.0305 54.0065H79.0465C79.5974 54.0065 80.0481 53.5557 80.0481 53.0049V20.9536C80.0481 20.4027 79.5974 19.952 79.0465 19.952H69.0305C68.4796 19.952 68.0289 20.4027 68.0289 20.9536V53.0049C68.0289 53.5557 68.4796 54.0065 69.0305 54.0065ZM96.0738 -0.0800781H3.92633C1.71029 -0.0800781 -0.0800781 1.71029 -0.0800781 3.92633V96.0738C-0.0800781 98.2898 1.71029 100.08 3.92633 100.08H96.0738C98.2898 100.08 100.08 98.2898 100.08 96.0738V3.92633C100.08 1.71029 98.2898 -0.0800781 96.0738 -0.0800781ZM91.0658 91.0658H8.93434V8.93434H91.0658V91.0658Z"/>
</g>
<defs>
<clipPath id="clip0_99_2866">
<rect width="100" height="100" />
</clipPath>
</defs>
</svg>
