<svg width="20" height="20" viewBox="0 0 20 20" fill="none" xmlns="http://www.w3.org/2000/svg">
<g clip-path="url(#clip0_1072_855)">
<path d="M16 0H4C1.79086 0 0 1.79086 0 4V16C0 18.2091 1.79086 20 4 20H16C18.2091 20 20 18.2091 20 16V4C20 1.79086 18.2091 0 16 0Z" fill="#9747FF"/>
<path d="M15.5656 9.83628L8.3062 17.6478C8.22926 17.7303 8.12772 17.7854 8.01688 17.8048C7.90604 17.8242 7.79194 17.8068 7.69176 17.7554C7.59158 17.704 7.5108 17.6212 7.46156 17.5196C7.41234 17.418 7.39736 17.303 7.41886 17.1921L8.36906 12.4186L4.63374 11.01C4.55352 10.9798 4.48198 10.9302 4.42552 10.8655C4.36904 10.8008 4.32942 10.7231 4.31016 10.6393C4.2909 10.5555 4.2926 10.4682 4.31514 10.3852C4.33768 10.3022 4.38032 10.2261 4.43928 10.1637L11.6987 2.35218C11.7756 2.26974 11.8771 2.21464 11.988 2.19524C12.0988 2.17584 12.2129 2.19316 12.3131 2.2446C12.4133 2.29604 12.4941 2.3788 12.5433 2.48042C12.5925 2.58202 12.6075 2.69696 12.586 2.80786L11.6332 7.58656L15.3685 8.99328C15.4481 9.02362 15.5191 9.0732 15.5751 9.13762C15.6312 9.20204 15.6705 9.27934 15.6897 9.36266C15.709 9.446 15.7075 9.5328 15.6853 9.6154C15.6632 9.698 15.6212 9.77386 15.563 9.83628H15.5656Z" fill="white"/>
</g>
<defs>
<clipPath id="clip0_1072_855">
<rect width="20" height="20" rx="5" fill="white"/>
</clipPath>
</defs>
</svg>
