<svg width="100" height="100" viewBox="0 0 100 100" xmlns="http://www.w3.org/2000/svg">
<g clip-path="url(#clip0_93_168)">
<path d="M30 0H70C77.9565 0 85.5871 3.16071 91.2132 8.7868C96.8393 14.4129 100 22.0435 100 30V70C100 77.9565 96.8393 85.5871 91.2132 91.2132C85.5871 96.8393 77.9565 100 70 100H30C22.0435 100 14.4129 96.8393 8.7868 91.2132C3.16071 85.5871 0 77.9565 0 70L0 30C0 22.0435 3.16071 14.4129 8.7868 8.7868C14.4129 3.16071 22.0435 0 30 0ZM30 10C24.6957 10 19.6086 12.1071 15.8579 15.8579C12.1071 19.6086 10 24.6957 10 30V70C10 75.3043 12.1071 80.3914 15.8579 84.1421C19.6086 87.8929 24.6957 90 30 90H70C75.3043 90 80.3914 87.8929 84.1421 84.1421C87.8929 80.3914 90 75.3043 90 70V30C90 24.6957 87.8929 19.6086 84.1421 15.8579C80.3914 12.1071 75.3043 10 70 10H30ZM60 45H75C76.3261 45 77.5979 45.5268 78.5355 46.4645C79.4732 47.4021 80 48.6739 80 50C80 51.3261 79.4732 52.5979 78.5355 53.5355C77.5979 54.4732 76.3261 55 75 55H60C58.6739 55 57.4021 54.4732 56.4645 53.5355C55.5268 52.5979 55 51.3261 55 50C55 48.6739 55.5268 47.4021 56.4645 46.4645C57.4021 45.5268 58.6739 45 60 45ZM50 65H75C76.3261 65 77.5979 65.5268 78.5355 66.4645C79.4732 67.4021 80 68.6739 80 70C80 71.3261 79.4732 72.5979 78.5355 73.5355C77.5979 74.4732 76.3261 75 75 75H50C48.6739 75 47.4021 74.4732 46.4645 73.5355C45.5268 72.5979 45 71.3261 45 70C45 68.6739 45.5268 67.4021 46.4645 66.4645C47.4021 65.5268 48.6739 65 50 65ZM50 25H75C76.3261 25 77.5979 25.5268 78.5355 26.4645C79.4732 27.4021 80 28.6739 80 30C80 31.3261 79.4732 32.5979 78.5355 33.5355C77.5979 34.4732 76.3261 35 75 35H50C48.6739 35 47.4021 34.4732 46.4645 33.5355C45.5268 32.5979 45 31.3261 45 30C45 28.6739 45.5268 27.4021 46.4645 26.4645C47.4021 25.5268 48.6739 25 50 25ZM29.14 51.215L39.75 40.6C40.2146 40.1358 40.766 39.7676 41.3728 39.5165C41.9797 39.2654 42.63 39.1363 43.2868 39.1365C43.9435 39.1367 44.5938 39.2663 45.2004 39.5178C45.8071 39.7694 46.3583 40.1379 46.8225 40.6025C47.2867 41.0671 47.6549 41.6185 47.906 42.2253C48.1571 42.8322 48.2862 43.4825 48.286 44.1393C48.2858 44.796 48.1562 45.4463 47.9047 46.0529C47.6531 46.6596 47.2846 47.2108 46.82 47.675L32.68 61.815C32.2156 62.2799 31.6642 62.6487 31.0572 62.9003C30.4502 63.1519 29.7996 63.2814 29.1425 63.2814C28.4854 63.2814 27.8348 63.1519 27.2278 62.9003C26.6208 62.6487 26.0694 62.2799 25.605 61.815L18.535 54.75C17.6242 53.807 17.1202 52.544 17.1316 51.233C17.143 49.922 17.6689 48.6679 18.5959 47.7409C19.5229 46.8139 20.777 46.288 22.088 46.2766C23.399 46.2652 24.662 46.7692 25.605 47.68L29.14 51.215Z"/>
</g>
<defs>
<clipPath id="clip0_93_168">
<rect width="100" height="100" />
</clipPath>
</defs>
</svg>
